<?xml version="1.0" encoding="UTF-8"?>
<svg version="1.1" xmlns="http://www.w3.org/2000/svg" width="512" height="512">
<path d="M0 0 C7.05887231 5.65003293 11.11048713 12.46180758 13.62890625 21.06640625 C14.70580762 31.56619465 13.00835741 40.84906983 6.31029415 49.1739006 C-0.53601793 57.41281433 -8.19947047 64.86207187 -15.77720642 72.42071533 C-17.47768541 74.12421802 -19.17773062 75.82815381 -20.87738138 77.53248286 C-24.56128964 81.22451371 -28.24826348 84.91345362 -31.93803024 88.59962845 C-37.42493459 94.08120555 -42.90609413 99.56850077 -48.38619615 105.05687729 C-58.744004 115.42989542 -69.10854188 125.79617127 -79.47519272 136.16035083 C-87.47994758 144.16327082 -95.48290007 152.16798919 -103.48459053 160.17397308 C-104.63544063 161.32542559 -105.78629133 162.47687749 -106.93714263 163.62832879 C-108.67147524 165.36356868 -110.40580716 167.09880926 -112.14013521 168.83405372 C-128.25615777 184.95850091 -144.37421998 201.08090696 -160.49654293 217.19905472 C-161.10383503 217.80619044 -161.71112713 218.41332616 -162.33682202 219.03885994 C-165.41462725 222.11585942 -168.49245249 225.19283889 -171.57028573 228.26981035 C-172.4871429 229.18641088 -172.4871429 229.18641088 -173.42252243 230.1215286 C-174.65859202 231.35725154 -175.89466256 232.59297354 -177.13073402 233.82869461 C-196.37191029 253.06451148 -215.60642499 272.30696701 -234.83569336 291.5546875 C-256.45289623 313.19260974 -278.07508983 334.82552706 -299.70466429 356.45108294 C-302.01105136 358.75707468 -304.31742155 361.06308332 -306.6237812 363.36910248 C-307.19164647 363.93687701 -307.75951173 364.50465154 -308.34458504 365.08963137 C-316.91237696 373.6562579 -325.47625751 382.22678146 -334.03816032 390.79929352 C-343.77417196 400.54735714 -353.51541444 410.29015833 -363.26365273 420.02599576 C-368.7163929 425.47210947 -374.16497 430.92231069 -379.60759848 436.37853002 C-383.67424561 440.45439904 -387.74871713 444.52237114 -391.8262567 448.58734044 C-393.47278204 450.23121125 -395.11678563 451.87761263 -396.75798308 453.52680269 C-420.19986549 477.07489577 -420.19986549 477.07489577 -436.18359375 477.87890625 C-447.45700299 476.80524823 -456.3475522 472.42503291 -463.58203125 463.6875 C-468.65903143 456.48434493 -471.08468609 448.30377157 -470.12109375 439.50390625 C-466.75079376 421.90092051 -452.66709708 410.75846931 -440.46498108 398.58709717 C-438.76450209 396.88359448 -437.06445688 395.17965869 -435.36480612 393.47532964 C-431.68089786 389.78329879 -427.99392402 386.09435888 -424.30415726 382.40818405 C-418.81725291 376.92660695 -413.33609337 371.43931173 -407.85599135 365.95093521 C-397.4981835 355.57791708 -387.13364562 345.21164123 -376.76699478 334.84746167 C-368.76223992 326.84454168 -360.75928743 318.83982331 -352.75759697 310.83383942 C-351.60674687 309.68238691 -350.45589617 308.53093501 -349.30504487 307.37948371 C-347.57071226 305.64424382 -345.83638034 303.90900324 -344.10205229 302.17375878 C-327.98602973 286.04931159 -311.86796752 269.92690554 -295.74564457 253.80875778 C-295.13835247 253.20162206 -294.53106037 252.59448634 -293.90536548 251.96895256 C-290.82756025 248.89195308 -287.74973501 245.81497361 -284.67190177 242.73800215 C-283.7550446 241.82140162 -283.7550446 241.82140162 -282.81966507 240.8862839 C-281.58359548 239.65056096 -280.34752494 238.41483896 -279.11145348 237.17911789 C-259.87027721 217.94330102 -240.63576251 198.70084549 -221.40649414 179.453125 C-199.78929127 157.81520276 -178.16709767 136.18228544 -156.53752321 114.55672956 C-154.23113614 112.25073782 -151.92476595 109.94472918 -149.6184063 107.63871002 C-148.7666084 106.78704822 -148.7666084 106.78704822 -147.89760246 105.91818113 C-139.32981054 97.3515546 -130.76592999 88.78103104 -122.20402718 80.20851898 C-112.46801554 70.46045536 -102.72677306 60.71765417 -92.97853477 50.98181674 C-87.5257946 45.53570303 -82.0772175 40.08550181 -76.63458902 34.62928248 C-72.56794189 30.55341346 -68.49347037 26.48544136 -64.4159308 22.42047206 C-62.76940546 20.77660125 -61.12540187 19.13019987 -59.48420442 17.48100981 C-42.762142 0.68318293 -23.71706468 -16.05094276 0 0 Z " fill="#FFFFFF" transform="translate(486.12109375,20.49609375)"/>
<path d="M0 0 C6.93652655 5.9746254 11.35731547 14.01719151 12.3828125 23.12109375 C12.80179791 35.99791211 8.55239485 44.53880043 0.0291698 53.88341737 C-2.26275596 56.25349882 -4.58310973 58.59156656 -6.91690063 60.92044067 C-7.80377481 61.81325709 -8.69064898 62.70607351 -9.60439813 63.62594497 C-12.04874983 66.08630934 -14.49922886 68.54048765 -16.95085692 70.9935987 C-19.60074709 73.64721217 -22.24493143 76.30650176 -24.88995361 78.96496582 C-30.66567633 84.76776164 -36.44886501 90.56307756 -42.23372698 96.3567605 C-45.84944446 99.97801656 -49.46369011 103.60073916 -53.07767868 107.22372055 C-63.09557578 117.2659867 -73.11535307 127.30636846 -83.1420536 137.33984566 C-84.10311828 138.30156903 -84.10311828 138.30156903 -85.0835984 139.28272115 C-85.72578295 139.92534226 -86.3679675 140.56796336 -87.02961218 141.23005784 C-88.33077971 142.53211228 -89.63194414 143.83416983 -90.93310547 145.13623047 C-91.9012254 146.10501469 -91.9012254 146.10501469 -92.8889033 147.0933703 C-103.34776816 157.56013223 -113.79305259 168.04033535 -124.23255844 178.52640249 C-134.96567352 189.30699916 -145.71005826 200.07625635 -156.46577585 210.83430374 C-162.49855398 216.86891189 -168.52644759 222.90822287 -174.54191971 228.96008682 C-179.66332191 234.11236428 -184.79498058 239.25414735 -189.94007714 244.38276805 C-192.56186802 246.99677272 -195.17867663 249.61528105 -197.782444 252.2472496 C-200.61248747 255.10766194 -203.46553268 257.94400525 -206.32119751 260.77883911 C-207.53496738 262.01677819 -207.53496738 262.01677819 -208.77325785 263.27972615 C-218.23689103 272.5833643 -229.18024757 277.64559541 -242.484375 277.75 C-252.8857277 277.31475026 -260.56253785 274.95590402 -268.20703125 267.75390625 C-274.58164474 260.5321219 -276.53931903 252.22127512 -276 242.72265625 C-274.12679719 232.05886771 -269.56606793 224.60035696 -261.42710495 217.64330387 C-256.74377761 213.55913586 -252.36771452 209.20849087 -247.9944458 204.79698181 C-247.12219699 203.92135403 -246.24994817 203.04572624 -245.35126758 202.14356428 C-243.44951329 200.23373028 -241.54871777 198.32299735 -239.64951706 196.41062927 C-236.55807261 193.29778408 -233.46302467 190.18853725 -230.36752319 187.07972717 C-226.45449049 183.14937738 -222.54237535 179.21811816 -218.63133451 175.28578628 C-210.94463287 167.55736245 -203.25102403 159.83584705 -195.55487061 152.11683655 C-194.34090033 150.89919693 -193.12693246 149.68155491 -191.91296697 148.46391052 C-190.07359542 146.61898619 -188.23421474 144.77407097 -186.39481391 142.92917584 C-179.47090861 135.98458438 -172.54750802 129.03949017 -165.625 122.09350586 C-164.99268018 121.45904667 -164.36036035 120.82458748 -163.70887932 120.17090226 C-153.46096077 109.88773356 -143.22222947 99.59545974 -132.98639217 89.30026715 C-122.4609286 78.71428945 -111.92396893 68.13985127 -101.37675166 57.57554728 C-94.88029083 51.06777264 -88.39312226 44.55101133 -81.91774532 38.02225626 C-77.47725807 33.54682329 -73.02575735 29.08254198 -68.56557563 24.62673681 C-65.99635564 22.05936887 -63.43218503 19.48745627 -60.88113785 16.9020195 C-58.10823332 14.0919821 -55.31206026 11.30583476 -52.51348877 8.52134705 C-51.32511095 7.30573047 -51.32511095 7.30573047 -50.1127255 6.06555599 C-36.00605383 -7.8320345 -16.77754342 -12.19367888 0 0 Z " fill="#FFFFFF" transform="translate(288,21.27734375)"/>
<path d="M0 0 C7.94765235 5.4038015 12.12499953 12.8487703 14.28125 22.08984375 C16.11015538 32.33171388 13.3608962 40.87017794 7.57152295 49.31090987 C4.32561433 53.59466029 0.56256967 57.32470368 -3.24282837 61.10881042 C-4.13786965 62.01064837 -5.03291093 62.91248632 -5.95507467 63.84165269 C-8.42001134 66.32480955 -10.89410706 68.79865429 -13.3699429 71.2709378 C-16.04619678 73.94657626 -18.71382325 76.63079442 -21.38265991 79.31382751 C-26.60503451 84.5610483 -31.83564938 89.79997812 -37.06962259 95.03562733 C-41.32590225 99.29333566 -45.57979784 103.55341143 -49.83204269 107.81514931 C-61.90320241 119.91270637 -73.98060892 132.00397679 -86.06610091 144.0872161 C-86.71669484 144.73769016 -87.36728876 145.38816422 -88.03759766 146.05834961 C-88.68899217 146.70962148 -89.34038669 147.36089336 -90.01152043 148.03190074 C-100.56867871 158.58783956 -111.11078887 169.15866602 -121.64616926 179.73633631 C-132.47865651 190.6119605 -143.32233752 201.47631271 -154.17770994 212.32909566 C-160.26610321 218.41649475 -166.34983229 224.50838968 -172.42152786 230.61244774 C-177.59041932 235.80871415 -182.76966754 240.99437907 -187.96241672 246.16680833 C-190.60848697 248.80311372 -193.24959717 251.44391013 -195.87769318 254.09814453 C-198.73402206 256.98258691 -201.61333237 259.84297171 -204.49526978 262.701828 C-205.72071249 263.95041675 -205.72071249 263.95041675 -206.97091162 265.22422951 C-215.15636569 273.26610567 -224.28106503 278.57808649 -235.94921875 278.94140625 C-245.70107488 278.27204808 -254.49390553 274.89319412 -261.25 267.71484375 C-268.23926671 258.21004355 -270.28527517 249.43933501 -269.25 237.71484375 C-266.53290158 226.44506053 -258.29320223 218.46051974 -250.32637024 210.51705933 C-249.4387905 209.62424291 -248.55121076 208.73142649 -247.63673466 207.81155503 C-245.1904518 205.35118766 -242.73803881 202.89701405 -240.28448403 200.4439013 C-237.63254887 197.79030952 -234.98633913 195.1310179 -232.33930969 192.47253418 C-226.55940626 186.6698503 -220.77211285 180.87457479 -214.98334146 175.0807395 C-211.36548562 171.45961968 -207.7492637 167.83687121 -204.1333828 164.21377945 C-194.11093168 154.17177443 -184.08691219 144.13134266 -174.05613422 134.09765434 C-173.09469221 133.13593097 -173.09469221 133.13593097 -172.11382712 132.15477885 C-170.8146036 130.85518909 -169.51537881 129.5556006 -168.21615276 128.25601338 C-167.57127011 127.61094791 -166.92638745 126.96588244 -166.26196289 126.30126953 C-165.2934495 125.33248531 -165.2934495 125.33248531 -164.30537017 124.3441297 C-153.84076612 113.87598307 -143.38795869 103.39614261 -132.94028876 92.91109751 C-122.19966713 82.13236219 -111.44968046 71.3630429 -100.69013566 60.60319626 C-94.65480703 54.56728389 -88.62346742 48.5275053 -82.60235023 42.47741318 C-77.47650138 37.32700997 -72.34206652 32.1853604 -67.19642148 27.05473195 C-64.57402575 24.43948744 -61.95575245 21.82045127 -59.34835052 19.1902504 C-56.51526452 16.33263133 -53.66297147 13.49496647 -50.80854797 10.65866089 C-49.99645522 9.83336817 -49.18436247 9.00807544 -48.34766084 8.15777385 C-34.45520494 -5.53478316 -17.61812129 -10.06312831 0 0 Z " fill="#FFFFFF" transform="translate(485.25,219.28515625)"/>
<path d="M0 0 C8.08172475 5.48449836 13.32146951 13.09141414 15.640625 22.63671875 C17.21716465 33.00418059 14.75373154 42.01954782 8.85498047 50.58032227 C5.47342439 54.99129914 1.57715437 58.85377234 -2.375 62.75 C-3.18710937 63.57371094 -3.99921875 64.39742188 -4.8359375 65.24609375 C-13.41884137 73.78773366 -21.76067328 79.51072531 -34.171875 80.16796875 C-44.56255625 79.83238455 -53.25829709 76.29957568 -60.5 68.75 C-68.02970972 59.29080216 -69.15722102 49.73923175 -68 38 C-65.41121239 26.35811488 -55.63327147 18.4169284 -47.5625 10.25 C-46.75490234 9.41339844 -45.94730469 8.57679688 -45.11523438 7.71484375 C-33.4110224 -4.1119748 -15.12420011 -9.29095714 0 0 Z " fill="#FFFFFF" transform="translate(484,418)"/>
<path d="M0 0 C7.262263 6.22819282 11.44348389 13.30150691 12.375 22.83984375 C12.89271254 34.24709214 10.70172694 42.23599292 3.06225586 50.765625 C-0.69523619 54.83672329 -4.54351892 58.80962519 -8.4375 62.75 C-9.24509766 63.58660156 -10.05269531 64.42320313 -10.88476562 65.28515625 C-18.93419264 73.41890442 -26.09491523 77.20485538 -37.625 77.3125 C-47.97914545 77.3125 -55.31772968 74.63368809 -62.953125 67.41796875 C-69.00127777 60.27329974 -72.38734159 51.66783842 -72.2109375 42.30078125 C-70.94286634 28.46941246 -63.17169984 19.66160503 -53.625 10.25 C-52.81289063 9.42628906 -52.00078125 8.60257813 -51.1640625 7.75390625 C-36.56320128 -6.77675852 -18.3292603 -12.48172804 0 0 Z " fill="#FFFFFF" transform="translate(88,21)"/>
</svg>
