<?xml version="1.0" encoding="UTF-8"?>
<svg version="1.1" xmlns="http://www.w3.org/2000/svg" width="512" height="512">
<path d="M0 0 C0.33 0.66 0.66 1.32 1 2 C0.22624023 2.09498779 -0.54751953 2.18997559 -1.34472656 2.2878418 C-37.97993713 6.86045882 -72.70062037 15.80344166 -103 38 C-104.04027344 38.75667969 -105.08054688 39.51335937 -106.15234375 40.29296875 C-114.28267255 46.32217408 -121.68560191 53.01534936 -129 60 C-129.65484375 60.60199219 -130.3096875 61.20398438 -130.984375 61.82421875 C-158.47452693 87.8089576 -175.3294686 126.41635448 -182 163 C-182.19779053 164.00756348 -182.39558105 165.01512695 -182.59936523 166.05322266 C-183.82335758 173.12345038 -184.05268853 179.68858099 -183.73828125 186.8359375 C-183.70613525 187.69322449 -183.67398926 188.55051147 -183.64086914 189.43377686 C-183.50579755 192.98435986 -183.36983633 196.53045335 -183.12915039 200.07568359 C-182.34918548 212.11099066 -182.34918548 212.11099066 -184 217 C-187.7921727 221.03584645 -191.93001428 222.91794162 -197 225 C-198.42591095 225.8145932 -199.83897004 226.65297254 -201.2265625 227.53125 C-202.34804687 228.1809375 -203.46953125 228.830625 -204.625 229.5 C-205.20894531 229.84546875 -205.79289062 230.1909375 -206.39453125 230.546875 C-209.166237 232.14520418 -210.74062871 233 -214 233 C-220.90282428 219.33992623 -227.31401515 205.89964306 -231 191 C-231.31106689 189.76636719 -231.31106689 189.76636719 -231.62841797 188.5078125 C-241.13367602 148.95391656 -234.87031408 105.34077291 -215 70 C-214.49629883 69.07598389 -214.49629883 69.07598389 -213.98242188 68.13330078 C-193.59555036 30.908885 -157.47703401 3.18211221 -116.91796875 -8.68359375 C-79.39159676 -19.05937527 -35.25317814 -18.20607956 0 0 Z " fill="#FFFFFF" transform="translate(247,151)"/>
<path d="M0 0 C0.66 0 1.32 0 2 0 C3.43573025 1.90924805 4.75669954 3.81690049 6.0625 5.8125 C15.02284298 19.10872699 25.50668086 31.87829399 38 42 C38.48952148 42.40186523 38.97904297 42.80373047 39.48339844 43.21777344 C79.99090621 76.36468207 130.841486 93.18217452 183.21484375 88.49609375 C196.09647583 87.14666762 208.58654611 84.68240893 221 81 C221.69544922 80.79568359 222.39089844 80.59136719 223.10742188 80.38085938 C241.29206392 74.87830198 259.76566285 66.38197603 275 55 C278 53 278 53 280.66015625 53.07421875 C285.07324878 54.29749703 288.56176598 56.41715245 292.4375 58.8125 C293.89431902 59.69436111 295.351348 60.57587547 296.80859375 61.45703125 C297.50710449 61.88322754 298.20561523 62.30942383 298.92529297 62.74853516 C301.91952405 64.5546576 304.95592176 66.27943404 308 68 C305.59722556 81.07839252 291.73388897 93.63474556 283 103 C282.30261719 103.75152344 281.60523438 104.50304687 280.88671875 105.27734375 C253.18499039 134.0932184 211.65391135 151.21439459 171.91796875 152.203125 C144.75012634 152.51935804 119.79602825 148.31361269 95 137 C94.08226807 136.58645264 94.08226807 136.58645264 93.14599609 136.16455078 C54.60087409 118.57906152 25.25104897 85.1353085 9.8203125 46.0546875 C4.26206181 31.14820182 1.14664369 15.83554473 0 0 Z " fill="#FFFFFF" transform="translate(170,315)"/>
<path d="M0 0 C2.55358453 2.24666331 5.03337801 4.55270859 7.5 6.89453125 C8.00144531 7.36342773 8.50289063 7.83232422 9.01953125 8.31542969 C37.58996683 35.16538283 56.92556749 74.45499698 58.5 113.89453125 C57.84 113.89453125 57.18 113.89453125 56.5 113.89453125 C55.06426909 111.98528232 53.74336763 110.07758632 52.4375 108.08203125 C34.74331085 81.84125539 11.39194323 61.67589362 -16.5 46.89453125 C-17.19528809 46.52489258 -17.89057617 46.15525391 -18.60693359 45.77441406 C-36.64445553 36.35862801 -56.4573745 30.20639238 -76.5 26.89453125 C-77.51175293 26.72099121 -77.51175293 26.72099121 -78.54394531 26.54394531 C-125.97809964 18.71951555 -177.25586036 31.50790006 -216.5 58.89453125 C-219.5 60.89453125 -219.5 60.89453125 -221.81518555 60.71704102 C-224.97981838 59.74753588 -227.57974416 58.37221534 -230.45703125 56.734375 C-231.56884766 56.10595703 -232.68066406 55.47753906 -233.82617188 54.83007812 C-234.98836675 54.16421171 -236.15047506 53.49819419 -237.3125 52.83203125 C-238.49378217 52.16147752 -239.67541945 51.49154894 -240.85742188 50.82226562 C-243.74183374 49.18580338 -246.6224665 47.54304879 -249.5 45.89453125 C-246.50706538 32.5976767 -233.50833062 20.57419327 -224.5 10.89453125 C-223.52353516 9.81945312 -223.52353516 9.81945312 -222.52734375 8.72265625 C-211.11933277 -3.32279658 -197.22391269 -12.62789911 -182.5 -20.10546875 C-181.88447266 -20.42209473 -181.26894531 -20.7387207 -180.63476562 -21.06494141 C-122.46037451 -50.66216749 -49.78830464 -41.93108781 0 0 Z " fill="#FFFFFF" transform="translate(283.5,83.10546875)"/>
<path d="M0 0 C6.90190272 13.6582501 13.32057589 27.09997631 17 42 C17.20737793 42.82773926 17.41475586 43.65547852 17.62841797 44.50830078 C27.04267985 83.97377965 20.91490813 127.75732551 1 163 C0.64292969 163.64259766 0.28585937 164.28519531 -0.08203125 164.94726562 C-4.9626043 173.66503834 -10.37176248 181.485696 -17 189 C-17.7425 189.85207031 -18.485 190.70414063 -19.25 191.58203125 C-21.466906 194.08759688 -23.71960004 196.55215808 -26 199 C-26.69609375 199.75023437 -27.3921875 200.50046875 -28.109375 201.2734375 C-56.18488299 230.47606442 -97.98986627 246.99436233 -138.1171875 248.19140625 C-164.64501231 248.64696672 -191.22888713 244.26662007 -215 232 C-215 231.67 -215 231.34 -215 231 C-214.40388916 230.94054199 -213.80777832 230.88108398 -213.19360352 230.81982422 C-176.57120034 227.03382423 -141.04091756 217.00721557 -111 195 C-109.95972656 194.24332031 -108.91945313 193.48664063 -107.84765625 192.70703125 C-99.71732745 186.67782592 -92.31439809 179.98465064 -85 173 C-84.34515625 172.39800781 -83.6903125 171.79601562 -83.015625 171.17578125 C-55.52547307 145.1910424 -38.6705314 106.58364552 -32 70 C-31.80220947 68.99243652 -31.60441895 67.98487305 -31.40063477 66.94677734 C-30.17664242 59.87654962 -29.94731147 53.31141901 -30.26171875 46.1640625 C-30.29386475 45.30677551 -30.32601074 44.44948853 -30.35913086 43.56622314 C-30.49420245 40.01564014 -30.63016367 36.46954665 -30.87084961 32.92431641 C-31.65081452 20.88900934 -31.65081452 20.88900934 -30 16 C-26.2078273 11.96415355 -22.06998572 10.08205838 -17 8 C-15.57408905 7.1854068 -14.16102996 6.34702746 -12.7734375 5.46875 C-11.09121094 4.49421875 -11.09121094 4.49421875 -9.375 3.5 C-8.79105469 3.15453125 -8.20710937 2.8090625 -7.60546875 2.453125 C-4.833763 0.85479582 -3.25937129 0 0 0 Z " fill="#FFFFFF" transform="translate(479,128)"/>
<path d="M0 0 C0.99 0.495 0.99 0.495 2 1 C1.43152344 2.18851563 0.86304688 3.37703125 0.27734375 4.6015625 C-10.80248634 28.20013036 -19.03876498 53.85885209 -19.203125 80.171875 C-19.21018463 80.92775909 -19.21724426 81.68364319 -19.22451782 82.46243286 C-19.4340391 105.88928666 -19.4340391 105.88928666 -16 129 C-15.80132324 129.89750977 -15.60264648 130.79501953 -15.39794922 131.71972656 C-3.97638003 182.21418449 25.48391102 225.33762048 68.97265625 253.50390625 C77.3647101 258.79605966 86.12837418 263.56418709 95 268 C95 278.89 95 289.78 95 301 C69.08628414 301.62192918 45.34052771 296.38489061 22 285 C21.36755371 284.69336426 20.73510742 284.38672852 20.08349609 284.07080078 C-18.76740091 264.96721161 -48.43756077 229.99858136 -62.48925781 189.16137695 C-63.79127709 185.14124618 -64.92572364 181.08628881 -66 177 C-66.21172852 176.21189941 -66.42345703 175.42379883 -66.64160156 174.61181641 C-69.89584087 161.91203145 -70.38805726 149.28683981 -70.4375 136.25 C-70.44376404 135.47916077 -70.45002808 134.70832153 -70.45648193 133.91412354 C-70.53452821 118.72502323 -68.5832177 103.96161214 -64.25 89.375 C-63.86376465 88.059552 -63.86376465 88.059552 -63.46972656 86.7175293 C-55.29717508 59.76920304 -40.10381307 36.58833068 -20 17 C-19.4534375 16.41992188 -18.906875 15.83984375 -18.34375 15.2421875 C-12.74071444 9.38655607 -6.56100093 4.72392067 0 0 Z " fill="#FFFFFF" transform="translate(161,211)"/>
<path d="M0 0 C45.93909364 -1.10253825 84.68821298 17.46121257 118.1171875 47.9296875 C130.10544623 59.47598278 139.05141974 73.5064902 147 88 C147.77150391 89.34578125 147.77150391 89.34578125 148.55859375 90.71875 C158.94563601 109.86018289 165.06422265 133.27568445 165.203125 155.0234375 C165.21018463 155.76263931 165.21724426 156.50184113 165.22451782 157.26344299 C165.44902779 187.65942081 165.44902779 187.65942081 162 201 C161.80132324 201.81355957 161.60264648 202.62711914 161.39794922 203.46533203 C154.23496804 232.39089874 140.50487457 257.42445951 120 279 C119.51660156 279.51062988 119.03320312 280.02125977 118.53515625 280.54736328 C111.22049019 288.22457046 103.70700648 294.92862792 95 301 C94.34 300.67 93.68 300.34 93 300 C93.56847656 298.81148438 94.13695312 297.62296875 94.72265625 296.3984375 C105.80248634 272.79986964 114.03876498 247.14114791 114.203125 220.828125 C114.21371445 219.69429886 114.21371445 219.69429886 114.22451782 218.53756714 C114.4340391 195.11071334 114.4340391 195.11071334 111 172 C110.80132324 171.10249023 110.60264648 170.20498047 110.39794922 169.28027344 C98.3848492 116.17067322 66.9289741 73.41701867 21.23388672 44.37060547 C14.37725487 40.16370588 7.18940458 36.59470229 0 33 C0 22.11 0 11.22 0 0 Z " fill="#FFFFFF" transform="translate(256,0)"/>
<path d="M0 0 C15.15972744 15.92805671 19.33807233 34.80111126 19.08203125 56.078125 C18.62202484 74.05483888 9.70551455 90.59083025 -3.12109375 102.98046875 C-19.71301874 117.40926312 -39.01357507 122.42545092 -60.5546875 121.20361328 C-79.23485788 119.57940516 -95.29267105 109.75134294 -107.6875 96.16796875 C-121.62600841 78.80969093 -124.56794876 59.68329384 -123.12109375 37.98046875 C-120.95594993 20.27464795 -110.25803169 4.61302225 -97.0078125 -6.8515625 C-66.72356162 -29.59548569 -26.96023054 -25.66931711 0 0 Z " fill="#FFFFFF" transform="translate(308.12109375,206.01953125)"/>
</svg>
