<?xml version="1.0" encoding="UTF-8"?>
<svg version="1.1" xmlns="http://www.w3.org/2000/svg" width="512" height="512">
<path d="M0 0 C4.64033987 2.15444351 8.03598049 5.2220809 10 10 C10.548465 14.1369739 10.46573372 18.23167793 10.390625 22.3984375 C10.38659668 23.45393799 10.38256836 24.50943848 10.37841797 25.59692383 C10.3575594 29.52312716 10.30171402 33.44908184 10.25 37.375 C10.1675 46.16125 10.085 54.9475 10 64 C31.12 64 52.24 64 74 64 C73.84205802 51.76404524 73.84205802 51.76404524 73.63964844 39.52880859 C73.62795686 37.98536286 73.61776614 36.44190471 73.609375 34.8984375 C73.58891113 34.10864502 73.56844727 33.31885254 73.54736328 32.50512695 C73.54402209 27.17760243 74.50589072 24.24879206 78 20 C81.81930172 16.37166337 84.88279006 15.68999542 90 15.5 C95.11720994 15.68999542 98.18069828 16.37166337 102 20 C106.15820905 25.05632886 106.55289056 28.63588119 106.390625 34.8984375 C106.38659668 35.63940674 106.38256836 36.38037598 106.37841797 37.14379883 C106.3576323 39.88778772 106.30178726 42.6314211 106.25 45.375 C106.1675 51.52125 106.085 57.6675 106 64 C127.12 64 148.24 64 170 64 C169.84188898 46.49853038 169.84188898 46.49853038 169.63964844 28.99755859 C169.62796219 26.79785946 169.61777021 24.59815166 169.609375 22.3984375 C169.58891113 21.26317627 169.56844727 20.12791504 169.54736328 18.95825195 C169.54457574 12.6402802 169.70934292 8.777115 174 4 C177.81930172 0.37166337 180.88279006 -0.31000458 186 -0.5 C191.11720994 -0.31000458 194.18069828 0.37166337 198 4 C203.10474514 9.65076346 202.51996378 15.27421505 202.390625 22.6171875 C202.38496521 23.82948029 202.37930542 25.04177307 202.37347412 26.290802 C202.35113158 30.15260749 202.30093598 34.01347618 202.25 37.875 C202.2299324 40.49738241 202.21168209 43.1197794 202.1953125 45.7421875 C202.15127351 52.16177652 202.08438105 58.58082132 202 65 C202.81571976 65.19571594 203.63143951 65.39143188 204.47187805 65.59307861 C206.0835511 65.98641388 206.0835511 65.98641388 207.7277832 66.38769531 C208.79100296 66.64528625 209.85422272 66.9028772 210.94966125 67.16827393 C214.9615702 68.26218826 218.51693069 69.82343464 222.1875 71.75 C222.86530518 72.09708008 223.54311035 72.44416016 224.24145508 72.80175781 C229.64823359 75.64654517 234.38097865 79.00002275 239 83 C240.18916016 83.89525391 240.18916016 83.89525391 241.40234375 84.80859375 C252.70395233 94.34273272 260.1110528 108.05654884 263.58984375 122.24755859 C263.85531006 123.32556732 264.12077637 124.40357605 264.39428711 125.51425171 C264.59417236 126.33454865 264.79405762 127.15484558 265 128 C266.01358078 127.98667633 266.01358078 127.98667633 267.04763794 127.9730835 C274.08798758 127.8845089 281.12817862 127.82422329 288.16894531 127.78027344 C290.79563833 127.76017285 293.42228669 127.73288796 296.04882812 127.69824219 C299.82693512 127.64965836 303.60444984 127.62701491 307.3828125 127.609375 C308.55490265 127.58872986 309.7269928 127.56808472 310.93460083 127.54681396 C317.27868413 127.5450726 321.21111202 127.67384959 326 132 C329.62833663 135.81930172 330.31000458 138.88279006 330.5 144 C330.31000458 149.11720994 329.62833663 152.18069828 326 156 C320.37917898 161.04844776 314.89942344 160.52217398 307.6015625 160.390625 C306.54606201 160.38659668 305.49056152 160.38256836 304.40307617 160.37841797 C300.47687284 160.3575594 296.55091816 160.30171402 292.625 160.25 C283.83875 160.1675 275.0525 160.085 266 160 C266 181.12 266 202.24 266 224 C278.23595476 223.84205802 278.23595476 223.84205802 290.47119141 223.63964844 C292.01463714 223.62795686 293.55809529 223.61776614 295.1015625 223.609375 C295.89135498 223.58891113 296.68114746 223.56844727 297.49487305 223.54736328 C302.82239757 223.54402209 305.75120794 224.50589072 310 228 C313.62833663 231.81930172 314.31000458 234.88279006 314.5 240 C314.31000458 245.11720994 313.62833663 248.18069828 310 252 C304.94367114 256.15820905 301.36411881 256.55289056 295.1015625 256.390625 C294.36059326 256.38659668 293.61962402 256.38256836 292.85620117 256.37841797 C290.11221228 256.3576323 287.3685789 256.30178726 284.625 256.25 C278.47875 256.1675 272.3325 256.085 266 256 C266 277.12 266 298.24 266 320 C283.50146962 319.84188898 283.50146962 319.84188898 301.00244141 319.63964844 C303.20214054 319.62796219 305.40184834 319.61777021 307.6015625 319.609375 C308.73682373 319.58891113 309.87208496 319.56844727 311.04174805 319.54736328 C317.3597198 319.54457574 321.222885 319.70934292 326 324 C329.62833663 327.81930172 330.31000458 330.88279006 330.5 336 C330.31000458 341.11720994 329.62833663 344.18069828 326 348 C320.34923654 353.10474514 314.72578495 352.51996378 307.3828125 352.390625 C305.56437332 352.38213531 305.56437332 352.38213531 303.709198 352.37347412 C299.84739251 352.35113158 295.98652382 352.30093598 292.125 352.25 C289.50261759 352.2299324 286.8802206 352.21168209 284.2578125 352.1953125 C277.83822348 352.15127351 271.41917868 352.08438105 265 352 C264.80428406 352.81571976 264.60856812 353.63143951 264.40692139 354.47187805 C264.14469788 355.54632675 263.88247437 356.62077545 263.61230469 357.7277832 C263.22591827 359.32261284 263.22591827 359.32261284 262.83172607 360.94966125 C261.73781174 364.9615702 260.17656536 368.51693069 258.25 372.1875 C257.90291992 372.86530518 257.55583984 373.54311035 257.19824219 374.24145508 C254.35345483 379.64823359 250.99997725 384.38097865 247 389 C246.40316406 389.79277344 245.80632812 390.58554687 245.19140625 391.40234375 C235.65726728 402.70395233 221.94345116 410.1110528 207.75244141 413.58984375 C206.67443268 413.85531006 205.59642395 414.12077637 204.48574829 414.39428711 C203.25530289 414.69411499 203.25530289 414.69411499 202 415 C202.00888245 415.67572052 202.01776489 416.35144104 202.0269165 417.04763794 C202.1154911 424.08798758 202.17577671 431.12817862 202.21972656 438.16894531 C202.23982715 440.79563833 202.26711204 443.42228669 202.30175781 446.04882812 C202.35034164 449.82693512 202.37298509 453.60444984 202.390625 457.3828125 C202.42159271 459.14094772 202.42159271 459.14094772 202.45318604 460.93460083 C202.4549274 467.27868413 202.32615041 471.21111202 198 476 C194.18069828 479.62833663 191.11720994 480.31000458 186 480.5 C180.88279006 480.31000458 177.81930172 479.62833663 174 476 C168.95155224 470.37917898 169.47782602 464.89942344 169.609375 457.6015625 C169.61340332 456.54606201 169.61743164 455.49056152 169.62158203 454.40307617 C169.6424406 450.47687284 169.69828598 446.55091816 169.75 442.625 C169.8325 433.83875 169.915 425.0525 170 416 C148.88 416 127.76 416 106 416 C106.15794198 428.23595476 106.15794198 428.23595476 106.36035156 440.47119141 C106.37204314 442.01463714 106.38223386 443.55809529 106.390625 445.1015625 C106.41108887 445.89135498 106.43155273 446.68114746 106.45263672 447.49487305 C106.45597791 452.82239757 105.49410928 455.75120794 102 460 C98.18069828 463.62833663 95.11720994 464.31000458 90 464.5 C84.88279006 464.31000458 81.81930172 463.62833663 78 460 C73.84179095 454.94367114 73.44710944 451.36411881 73.609375 445.1015625 C73.61340332 444.36059326 73.61743164 443.61962402 73.62158203 442.85620117 C73.6423677 440.11221228 73.69821274 437.3685789 73.75 434.625 C73.8325 428.47875 73.915 422.3325 74 416 C52.88 416 31.76 416 10 416 C10.15811102 433.50146962 10.15811102 433.50146962 10.36035156 451.00244141 C10.37203781 453.20214054 10.38222979 455.40184834 10.390625 457.6015625 C10.41108887 458.73682373 10.43155273 459.87208496 10.45263672 461.04174805 C10.45542426 467.3597198 10.29065708 471.222885 6 476 C2.18069828 479.62833663 -0.88279006 480.31000458 -6 480.5 C-11.11720994 480.31000458 -14.18069828 479.62833663 -18 476 C-23.10474514 470.34923654 -22.51996378 464.72578495 -22.390625 457.3828125 C-22.38496521 456.17051971 -22.37930542 454.95822693 -22.37347412 453.709198 C-22.35113158 449.84739251 -22.30093598 445.98652382 -22.25 442.125 C-22.2299324 439.50261759 -22.21168209 436.8802206 -22.1953125 434.2578125 C-22.15127351 427.83822348 -22.08438105 421.41917868 -22 415 C-22.81571976 414.80428406 -23.63143951 414.60856812 -24.47187805 414.40692139 C-25.54632675 414.14469788 -26.62077545 413.88247437 -27.7277832 413.61230469 C-29.32261284 413.22591827 -29.32261284 413.22591827 -30.94966125 412.83172607 C-34.9615702 411.73781174 -38.51693069 410.17656536 -42.1875 408.25 C-42.86530518 407.90291992 -43.54311035 407.55583984 -44.24145508 407.19824219 C-49.64823359 404.35345483 -54.38097865 400.99997725 -59 397 C-59.79277344 396.40316406 -60.58554688 395.80632812 -61.40234375 395.19140625 C-72.70395233 385.65726728 -80.1110528 371.94345116 -83.58984375 357.75244141 C-83.98804321 356.13542831 -83.98804321 356.13542831 -84.39428711 354.48574829 C-84.59417236 353.66545135 -84.79405762 352.84515442 -85 352 C-85.67572052 352.00888245 -86.35144104 352.01776489 -87.04763794 352.0269165 C-94.08798758 352.1154911 -101.12817862 352.17577671 -108.16894531 352.21972656 C-110.79563833 352.23982715 -113.42228669 352.26711204 -116.04882812 352.30175781 C-119.82693512 352.35034164 -123.60444984 352.37298509 -127.3828125 352.390625 C-128.55490265 352.41127014 -129.7269928 352.43191528 -130.93460083 352.45318604 C-137.27868413 352.4549274 -141.21111202 352.32615041 -146 348 C-149.62833663 344.18069828 -150.31000458 341.11720994 -150.5 336 C-150.31000458 330.88279006 -149.62833663 327.81930172 -146 324 C-140.37917898 318.95155224 -134.89942344 319.47782602 -127.6015625 319.609375 C-126.01831177 319.61541748 -126.01831177 319.61541748 -124.40307617 319.62158203 C-120.47687284 319.6424406 -116.55091816 319.69828598 -112.625 319.75 C-99.445625 319.87375 -99.445625 319.87375 -86 320 C-86 298.88 -86 277.76 -86 256 C-98.23595476 256.15794198 -98.23595476 256.15794198 -110.47119141 256.36035156 C-112.01463714 256.37204314 -113.55809529 256.38223386 -115.1015625 256.390625 C-115.89135498 256.41108887 -116.68114746 256.43155273 -117.49487305 256.45263672 C-122.82239757 256.45597791 -125.75120794 255.49410928 -130 252 C-133.62833663 248.18069828 -134.31000458 245.11720994 -134.5 240 C-134.31000458 234.88279006 -133.62833663 231.81930172 -130 228 C-124.94367114 223.84179095 -121.36411881 223.44710944 -115.1015625 223.609375 C-114.36059326 223.61340332 -113.61962402 223.61743164 -112.85620117 223.62158203 C-110.11221228 223.6423677 -107.3685789 223.69821274 -104.625 223.75 C-98.47875 223.8325 -92.3325 223.915 -86 224 C-86 202.88 -86 181.76 -86 160 C-103.50146962 160.15811102 -103.50146962 160.15811102 -121.00244141 160.36035156 C-123.20214054 160.37203781 -125.40184834 160.38222979 -127.6015625 160.390625 C-128.73682373 160.41108887 -129.87208496 160.43155273 -131.04174805 160.45263672 C-137.3597198 160.45542426 -141.222885 160.29065708 -146 156 C-149.62833663 152.18069828 -150.31000458 149.11720994 -150.5 144 C-150.31000458 138.88279006 -149.62833663 135.81930172 -146 132 C-140.34923654 126.89525486 -134.72578495 127.48003622 -127.3828125 127.609375 C-126.17051971 127.61503479 -124.95822693 127.62069458 -123.709198 127.62652588 C-119.84739251 127.64886842 -115.98652382 127.69906402 -112.125 127.75 C-109.50261759 127.7700676 -106.8802206 127.78831791 -104.2578125 127.8046875 C-97.83822348 127.84872649 -91.41917868 127.91561895 -85 128 C-84.80428406 127.18428024 -84.60856812 126.36856049 -84.40692139 125.52812195 C-84.14469788 124.45367325 -83.88247437 123.37922455 -83.61230469 122.2722168 C-83.35471375 121.20899704 -83.0971228 120.14577728 -82.83172607 119.05033875 C-81.73781174 115.0384298 -80.17656536 111.48306931 -78.25 107.8125 C-77.90291992 107.13469482 -77.55583984 106.45688965 -77.19824219 105.75854492 C-74.35345483 100.35176641 -70.99997725 95.61902135 -67 91 C-66.10474609 89.81083984 -66.10474609 89.81083984 -65.19140625 88.59765625 C-55.65726728 77.29604767 -41.94345116 69.8889472 -27.75244141 66.41015625 C-26.67443268 66.14468994 -25.59642395 65.87922363 -24.48574829 65.60571289 C-23.66545135 65.40582764 -22.84515442 65.20594238 -22 65 C-22.00888245 64.32427948 -22.01776489 63.64855896 -22.0269165 62.95236206 C-22.1154911 55.91201242 -22.17577671 48.87182138 -22.21972656 41.83105469 C-22.23982715 39.20436167 -22.26711204 36.57771331 -22.30175781 33.95117188 C-22.35034164 30.17306488 -22.37298509 26.39555016 -22.390625 22.6171875 C-22.41127014 21.44509735 -22.43191528 20.2730072 -22.45318604 19.06539917 C-22.4549274 12.72131587 -22.32615041 8.78888798 -18 4 C-12.72867143 -1.00776214 -6.89190982 -0.92775709 0 0 Z M5.75 161.3125 C-4.31660033 173.08360437 -6.15327638 186.68957121 -6.14526367 201.62792969 C-6.14862228 202.5447049 -6.1519809 203.4614801 -6.15544128 204.40603638 C-6.164874 207.41133003 -6.16689055 210.4165675 -6.16796875 213.421875 C-6.1711868 215.53021263 -6.17455128 217.63855004 -6.17805481 219.74688721 C-6.18402699 224.15808632 -6.18589669 228.56926589 -6.18530273 232.98046875 C-6.18520125 238.60305285 -6.19884753 244.22551028 -6.21607494 249.84806442 C-6.22725244 254.20123864 -6.22922018 258.55438279 -6.22869301 262.90756989 C-6.2298647 264.97898037 -6.23424033 267.05039184 -6.24202538 269.12178802 C-6.31123802 289.43978851 -5.79965756 306.81968348 9.1015625 322.1640625 C21.32847809 333.69970371 35.40283948 336.15396656 51.62792969 336.14526367 C52.5447049 336.14862228 53.4614801 336.1519809 54.40603638 336.15544128 C57.41133003 336.164874 60.4165675 336.16689055 63.421875 336.16796875 C65.53021263 336.1711868 67.63855004 336.17455128 69.74688721 336.17805481 C74.15808632 336.18402699 78.56926589 336.18589669 82.98046875 336.18530273 C88.60305285 336.18520125 94.22551028 336.19884753 99.84806442 336.21607494 C104.20123864 336.22725244 108.55438279 336.22922018 112.90756989 336.22869301 C114.97898037 336.2298647 117.05039184 336.23424033 119.12178802 336.24202538 C139.43978851 336.31123802 156.81968348 335.79965756 172.1640625 320.8984375 C183.69970371 308.67152191 186.15396656 294.59716052 186.14526367 278.37207031 C186.14862228 277.4552951 186.1519809 276.5385199 186.15544128 275.59396362 C186.164874 272.58866997 186.16689055 269.5834325 186.16796875 266.578125 C186.1711868 264.46978737 186.17455128 262.36144996 186.17805481 260.25311279 C186.18402699 255.84191368 186.18589669 251.43073411 186.18530273 247.01953125 C186.18520125 241.39694715 186.19884753 235.77448972 186.21607494 230.15193558 C186.22725244 225.79876136 186.22922018 221.44561721 186.22869301 217.09243011 C186.2298647 215.02101963 186.23424033 212.94960816 186.24202538 210.87821198 C186.31123802 190.56021149 185.79965756 173.18031652 170.8984375 157.8359375 C158.67152191 146.30029629 144.59716052 143.84603344 128.37207031 143.85473633 C127.4552951 143.85137772 126.5385199 143.8480191 125.59396362 143.84455872 C122.58866997 143.835126 119.5834325 143.83310945 116.578125 143.83203125 C114.46978737 143.8288132 112.36144996 143.82544872 110.25311279 143.82194519 C105.84191368 143.81597301 101.43073411 143.81410331 97.01953125 143.81469727 C91.39694715 143.81479875 85.77448972 143.80115247 80.15193558 143.78392506 C75.79876136 143.77274756 71.44561721 143.77077982 67.09243011 143.77130699 C65.02101963 143.7701353 62.94960816 143.76575967 60.87821198 143.75797462 C39.19269738 143.68410358 21.45455416 144.66684896 5.75 161.3125 Z " fill="#FFFFFF" transform="translate(166,16)"/>
<path d="M0 0 C1.04462402 -0.00700928 2.08924805 -0.01401855 3.16552734 -0.02124023 C6.61062381 -0.0388121 10.05489551 -0.02719969 13.5 -0.01367188 C15.8984391 -0.016367 18.29687714 -0.0202496 20.6953125 -0.02526855 C25.71885595 -0.03116254 30.74211467 -0.02260346 35.765625 -0.00390625 C42.20189072 0.01888275 48.63748922 0.00575921 55.07373047 -0.01819611 C60.02544168 -0.03265649 64.97699495 -0.02804688 69.92871094 -0.01768494 C72.30175862 -0.01501834 74.67482068 -0.01828502 77.04785156 -0.02760315 C80.36562028 -0.03777219 83.68231145 -0.02226121 87 0 C88.46832275 -0.01214539 88.46832275 -0.01214539 89.96630859 -0.02453613 C95.62935479 0.04578731 99.1245714 0.56573088 103.5 4.51757812 C108.18597642 9.70582402 108.07254865 14.37188837 108.01757812 21.01757812 C108.0245874 22.06220215 108.03159668 23.10682617 108.03881836 24.18310547 C108.05639022 27.62820193 108.04477782 31.07247364 108.03125 34.51757812 C108.03394513 36.91601723 108.03782772 39.31445526 108.04284668 41.71289062 C108.04874066 46.73643408 108.04018159 51.7596928 108.02148438 56.78320312 C107.99869537 63.21946884 108.01181892 69.65506735 108.03577423 76.09130859 C108.05023461 81.0430198 108.045625 85.99457307 108.03526306 90.94628906 C108.03259647 93.31933674 108.03586314 95.6923988 108.04518127 98.06542969 C108.05535031 101.3831984 108.03983934 104.69988957 108.01757812 108.01757812 C108.02567505 108.99645996 108.03377197 109.9753418 108.04211426 110.98388672 C107.97179082 116.64693291 107.45184725 120.14214952 103.5 124.51757812 C98.3117541 129.20355455 93.64568975 129.09012677 87 129.03515625 C85.95537598 129.04216553 84.91075195 129.0491748 83.83447266 129.05639648 C80.38937619 129.07396835 76.94510449 129.06235594 73.5 129.04882812 C71.1015609 129.05152325 68.70312286 129.05540585 66.3046875 129.0604248 C61.28114405 129.06631879 56.25788533 129.05775971 51.234375 129.0390625 C44.79810928 129.0162735 38.36251078 129.02939704 31.92626953 129.05335236 C26.97455832 129.06781274 22.02300505 129.06320313 17.07128906 129.05284119 C14.69824138 129.05017459 12.32517932 129.05344127 9.95214844 129.0627594 C6.63437972 129.07292844 3.31768855 129.05741746 0 129.03515625 C-0.97888184 129.04325317 -1.95776367 129.0513501 -2.96630859 129.05969238 C-8.62935479 128.98936894 -12.1245714 128.46942537 -16.5 124.51757812 C-21.18597642 119.32933223 -21.07254865 114.66326788 -21.01757812 108.01757812 C-21.0245874 106.9729541 -21.03159668 105.92833008 -21.03881836 104.85205078 C-21.05639022 101.40695432 -21.04477782 97.96268261 -21.03125 94.51757812 C-21.03394513 92.11913902 -21.03782772 89.72070099 -21.04284668 87.32226562 C-21.04874066 82.29872217 -21.04018159 77.27546345 -21.02148438 72.25195312 C-20.99869537 65.81568741 -21.01181892 59.3800889 -21.03577423 52.94384766 C-21.05023461 47.99213645 -21.045625 43.04058318 -21.03526306 38.08886719 C-21.03259647 35.71581951 -21.03586314 33.34275745 -21.04518127 30.96972656 C-21.05535031 27.65195785 -21.03983934 24.33526668 -21.01757812 21.01757812 C-21.02567505 20.03869629 -21.03377197 19.05981445 -21.04211426 18.05126953 C-20.97179082 12.38822334 -20.45184725 8.89300673 -16.5 4.51757812 C-11.3117541 -0.1683983 -6.64568975 -0.05497052 0 0 Z " fill="#FFFFFF" transform="translate(212.5,191.482421875)"/>
</svg>
