<?xml version="1.0" encoding="UTF-8"?>
<svg version="1.1" xmlns="http://www.w3.org/2000/svg" width="512" height="512">
<path d="M0 0 C1.77555539 1.55462134 3.52431484 3.14020027 5.25 4.75 C6.0227124 5.4613208 6.0227124 5.4613208 6.81103516 6.18701172 C33.61603907 31.06771693 49.34274441 67.33025862 51.36459351 103.81803894 C51.42964017 105.98969107 51.46626914 108.15951656 51.48828125 110.33203125 C51.4980751 111.13540924 51.50786896 111.93878723 51.51795959 112.76651001 C51.70190724 131.8052632 51.1376498 150.03661721 47.25 168.75 C46.92854004 170.3270874 46.92854004 170.3270874 46.60058594 171.93603516 C41.87307439 194.54482581 34.34851223 215.99340429 24.25 236.75 C23.71487793 237.85118164 23.71487793 237.85118164 23.16894531 238.97460938 C12.7617973 260.09359775 -4.0073117 290.52569013 -25.75 301.75 C-29.25 302.3125 -29.25 302.3125 -32.75 301.75 C-35.75 299.1875 -35.75 299.1875 -37.75 295.75 C-37.51917646 290.23001998 -35.6661951 286.29378734 -32.9375 281.625 C-8.47824862 237.47402093 10.91994228 176.39846949 -3.48095703 126.20214844 C-5.08218198 120.99306326 -6.86285474 115.86178183 -8.75 110.75 C-10.790466 116.24356231 -11.81780739 121.83119207 -12.9375 127.5625 C-21.99268764 172.15186985 -39.45959199 215.83288865 -64.75 253.75 C-65.24467773 254.49942871 -65.73935547 255.24885742 -66.24902344 256.02099609 C-73.16471947 266.46688896 -80.43682364 276.48015823 -88.42138672 286.13330078 C-89.62222844 287.59452347 -90.79895594 289.07548211 -91.97265625 290.55859375 C-101.07437326 302.00804338 -111.38221909 312.45241765 -121.6875 322.8125 C-122.27740723 323.40708008 -122.86731445 324.00166016 -123.47509766 324.61425781 C-138.148183 339.23380678 -154.77566915 351.94398457 -171.75 363.75 C-172.38615234 364.1929541 -173.02230469 364.6359082 -173.67773438 365.09228516 C-212.59582889 392.00615339 -256.04615117 413.8172452 -302.75 422.75 C-304.55210937 423.11738281 -304.55210937 423.11738281 -306.390625 423.4921875 C-341.11848587 429.3878476 -379.02427518 423.58412625 -408.26953125 403.375 C-435.43449458 383.72189148 -452.32116204 354.38052376 -458.75 321.75 C-458.92877686 320.84443359 -459.10755371 319.93886719 -459.29174805 319.00585938 C-460.96080545 309.53126358 -461.10777065 300.21269332 -461.0625 290.625 C-461.05926727 289.39511353 -461.05926727 289.39511353 -461.05596924 288.14038086 C-461.00521956 276.11651995 -460.6665286 264.47159184 -457.75 252.75 C-457.55664062 251.94353027 -457.36328125 251.13706055 -457.1640625 250.30615234 C-453.92578479 237.12566243 -449.19300083 224.69134664 -443.82421875 212.24511719 C-442.85567468 209.99545345 -441.90825858 207.73846159 -440.96875 205.4765625 C-425.42242806 168.45326782 -401.36490654 124.83091331 -366.75 102.75 C-365.80833984 102.09837891 -365.80833984 102.09837891 -364.84765625 101.43359375 C-360.26177445 98.44913099 -357.04557395 98.0554985 -351.75 98.75 C-349.25 100.25 -349.25 100.25 -347.75 102.75 C-346.60240968 110.78313221 -350.16462834 116.1278778 -354 123 C-355.30596734 125.41827429 -356.59295839 127.84631275 -357.875 130.27734375 C-358.36592133 131.20669991 -358.36592133 131.20669991 -358.86676025 132.15483093 C-372.6077409 158.38426373 -383.08760529 187.66428306 -388.75 216.75 C-388.91081055 217.53407227 -389.07162109 218.31814453 -389.23730469 219.12597656 C-395.13329427 248.77611798 -393.29530758 278.84884003 -381.75 306.75 C-381.65501221 305.95529297 -381.56002441 305.16058594 -381.4621582 304.34179688 C-375.56237071 255.9670408 -375.56237071 255.9670408 -360.75 243.75 C-356.84095075 242.46944938 -354.85120292 242.43187471 -350.9375 243.5625 C-346.87829774 247.62170226 -347.04049852 253.37858348 -346.3671875 258.875 C-344.69489326 271.52362549 -340.62468037 283.06312058 -330.65234375 291.53125 C-317.72298754 300.83491373 -301.37905284 300.99929371 -286.1875 298.6875 C-254.92335377 293.41335143 -226.15011031 274.21329768 -203.26171875 253.05078125 C-201.19413081 251.15683211 -199.09795026 249.31691947 -196.9765625 247.484375 C-184.94968276 236.98173279 -174.31596852 225.5046247 -164.75 212.75 C-163.40146253 211.09955115 -162.04768743 209.45336102 -160.6875 207.8125 C-131.33580532 171.01869206 -105.18907894 115.21432783 -110.171875 66.95703125 C-111.86744478 57.55120157 -114.90222038 50.42701271 -122.6875 44.6875 C-139.18044431 34.2821953 -159.73813777 35.66318303 -178.015625 39.6484375 C-191.36870022 42.84082177 -203.33421235 48.90280942 -215.48120117 55.15600586 C-216.81115112 55.83481812 -216.81115112 55.83481812 -218.16796875 56.52734375 C-218.9674292 56.93976318 -219.76688965 57.35218262 -220.59057617 57.77709961 C-223.545879 59.10857296 -225.57128814 59.41531178 -228.75 58.75 C-231.44990662 56.95006226 -233.2918865 55.666227 -234.75 52.75 C-235.26781922 48.95265904 -235.00914909 47.17574493 -233 43.875 C-229.17082421 39.77080054 -224.3598883 36.92235765 -219.64160156 33.94970703 C-217.61017215 32.66131724 -215.59806802 31.34565199 -213.5859375 30.02734375 C-176.24749762 5.76304224 -135.06401007 -13.61959376 -90.75 -20.25 C-89.72519531 -20.43433594 -88.70039063 -20.61867187 -87.64453125 -20.80859375 C-57.04263892 -24.27701284 -24.70378186 -19.53322286 0 0 Z " fill="#FFFFFF" transform="translate(460.75,54.25)"/>
<path d="M0 0 C10.63907837 7.67439692 15.51671767 17.81129338 17.91772461 30.54199219 C20.51005327 48.73478479 18.26056048 65.56322461 10.375 82.0625 C10.05144531 82.74320557 9.72789062 83.42391113 9.39453125 84.12524414 C7.32435291 88.16650747 5.52851349 90.52469681 1.3125 92.3125 C-2.62718189 92.3125 -4.8044179 92.04207141 -7.8671875 89.51171875 C-10.67593781 84.57530994 -10.24674334 79.71017093 -10.25 74.125 C-10.30029697 59.31907101 -10.30029697 59.31907101 -16.6875 46.3125 C-21.34274406 43.51935357 -24.80730301 42.83530269 -30.16015625 43.66796875 C-37.82716728 45.62323432 -44.97045787 49.19067869 -51.6875 53.3125 C-51.12675781 53.58835938 -50.56601563 53.86421875 -49.98828125 54.1484375 C-39.63175376 59.38824258 -32.05724941 64.36804879 -28.25 75.75 C-22.01621173 99.20731534 -35.52615282 124.16830732 -46.89746094 144.05786133 C-51.78146133 152.38423844 -57.50016091 159.91747174 -63.6875 167.3125 C-64.41195312 168.18003906 -65.13640625 169.04757812 -65.8828125 169.94140625 C-70.12925805 174.86228727 -74.63650046 179.22570177 -79.6875 183.3125 C-80.53699219 184.01117188 -81.38648438 184.70984375 -82.26171875 185.4296875 C-98.26496808 198.04889365 -117.29737153 207.66513856 -138.18359375 206.12890625 C-148.88522287 204.27853544 -158.06036917 197.73907059 -164.3046875 189.06640625 C-174.20796016 173.66952712 -175.80305618 155.31594498 -172.5 137.625 C-167.68880832 116.54199495 -167.68880832 116.54199495 -161.6875 110.3125 C-157.64805291 109.13738812 -155.63617996 108.8587835 -151.8125 110.6875 C-149.6875 112.3125 -149.6875 112.3125 -148.6875 113.3125 C-148.57832605 114.89054277 -148.53165842 116.47299842 -148.51171875 118.0546875 C-148.4147592 135.13418705 -148.4147592 135.13418705 -141.5 150.375 C-136.13083079 154.07376101 -130.94653569 154.76608137 -124.5625 153.6875 C-120.03587223 152.61577505 -116.61294129 150.7659008 -112.6875 148.3125 C-112.0275 148.3125 -111.3675 148.3125 -110.6875 148.3125 C-110.6875 147.6525 -110.6875 146.9925 -110.6875 146.3125 C-111.63625 146.395 -112.585 146.4775 -113.5625 146.5625 C-119.71934611 146.5625 -125.23272515 143.76304878 -130.4375 140.6875 C-139.44035256 131.18448897 -141.28116272 120.56858481 -140.99609375 108.0078125 C-140.15090199 90.76028935 -131.70289952 74.02271919 -121.6875 60.3125 C-120.99914062 59.33925781 -120.31078125 58.36601562 -119.6015625 57.36328125 C-114.27854998 50.01291197 -108.39325281 43.35534418 -102.12353516 36.81591797 C-100.8226314 35.45397215 -99.54099645 34.07368537 -98.26171875 32.69140625 C-76.86341533 10.21419677 -30.92234363 -19.13743695 0 0 Z " fill="#FFFFFF" transform="translate(297.6875,121.6875)"/>
</svg>
