<?xml version="1.0" encoding="UTF-8"?>
<svg version="1.1" xmlns="http://www.w3.org/2000/svg" width="512" height="512">
<path d="M0 0 C3.03033302 2.87493132 5.05720897 5.53712041 5.94346619 9.67459106 C6.19254669 20.49485039 2.53986214 30.46511408 -0.62109375 40.6796875 C-1.27130435 42.82451227 -1.91999159 44.96979935 -2.567276 47.11550903 C-3.96073544 51.72353491 -5.36445282 56.32825964 -6.77636719 60.93066406 C-9.03790146 68.30299015 -11.27654451 75.68214596 -13.51171875 83.0625 C-15.84650562 90.76747464 -18.18288982 98.471942 -20.52804565 106.17376709 C-25.70302181 123.16984489 -30.84232868 140.1762847 -35.94140625 157.1953125 C-36.27787611 158.31827602 -36.61434597 159.44123955 -36.96101189 160.59823227 C-38.6523898 166.24402874 -40.34298986 171.89005775 -42.03323364 177.53619385 C-45.11076325 187.81507433 -48.19528199 198.09185831 -51.2791729 208.36883163 C-52.99889194 214.09997142 -54.7181742 219.83124223 -56.4375 225.5625 C-57.1249979 227.8541673 -57.8124979 230.14583396 -58.5 232.4375 C-58.8403125 233.571875 -59.180625 234.70625 -59.53125 235.875 C-60.5625 239.3125 -61.59375 242.75 -62.625 246.1875 C-62.96532068 247.32190269 -63.30564137 248.45630539 -63.6562748 249.62508392 C-64.34369121 251.91647113 -65.03110856 254.20785805 -65.71852684 256.49924469 C-67.43856335 262.23268487 -69.15858358 267.96612993 -70.87857056 273.69958496 C-73.95694124 283.96105933 -77.03541752 294.22250194 -80.11451912 304.48375702 C-81.81340721 310.14539675 -83.51219765 315.80706579 -85.2109375 321.46875 C-85.71666857 323.15427727 -85.71666857 323.15427727 -86.23261642 324.87385559 C-91.15780727 341.289508 -96.07777564 357.70672088 -100.99489617 374.1247921 C-103.45928451 382.35305743 -105.92493839 390.58094358 -108.39066696 398.80880737 C-110.54998116 406.01460962 -112.70769514 413.22088836 -114.86416054 420.42754364 C-116.2008994 424.89332101 -117.53921608 429.35862445 -118.87794113 433.82380676 C-119.49097364 435.86965887 -120.10337579 437.9157 -120.71504593 439.96195984 C-123.84602116 450.43504281 -127.02446524 460.89201579 -130.30810547 471.31835938 C-130.59242495 472.22929604 -130.87674442 473.1402327 -131.16967964 474.0787735 C-135.16656703 486.67372037 -141.05691391 497.07912664 -152.62890625 504.19921875 C-165.48849327 510.84628939 -180.12889932 513.02992492 -194.1875 508.6875 C-206.61040939 503.72870307 -216.39843673 495.01673669 -222.21075058 482.9469986 C-224.5619166 476.62533168 -225.21498616 470.1419345 -225.97130346 463.47039247 C-226.50930621 458.80594903 -227.14404194 454.15457638 -227.7762146 449.50210571 C-227.91021337 448.51221409 -228.04421214 447.52232247 -228.18227148 446.50243413 C-231.07763939 425.52491477 -235.20469096 404.75213781 -239.6875 384.0625 C-239.93177294 382.92954341 -240.17604588 381.79658682 -240.42772102 380.62929821 C-252.937113 321.14474719 -252.937113 321.14474719 -289.73352051 275.30554199 C-316.82508846 258.03701418 -349.25880412 250.13288232 -380.3125 243.4375 C-381.44826634 243.19141432 -382.58403269 242.94532864 -383.75421619 242.69178581 C-404.29644696 238.27297132 -424.92589076 234.34539919 -445.75210571 231.5262146 C-447.20785096 231.32840952 -447.20785096 231.32840952 -448.6930052 231.12660837 C-453.20919909 230.52066589 -457.72568733 229.9474326 -462.25335884 229.43415451 C-475.27900347 227.87446101 -486.68536732 224.39759211 -495.51953125 214.01171875 C-505.61264992 201.07230316 -508.27745253 188.37600326 -506.5625 172.3125 C-504.22940919 160.19085503 -496.99458334 149.33808535 -486.9370575 142.1509552 C-481.7026413 138.71133806 -476.54851185 136.70787906 -470.57421875 134.90234375 C-469.51764572 134.57362778 -468.46107269 134.2449118 -467.3724823 133.90623474 C-463.44074658 132.69160005 -459.50241631 131.50025635 -455.5625 130.3125 C-453.91895438 129.81556871 -452.2754206 129.31859826 -450.63189697 128.82159424 C-437.37590664 124.81753106 -424.10600364 120.86031618 -410.83501816 116.90629959 C-404.92432221 115.14454632 -399.01453131 113.37976303 -393.10473633 111.61499023 C-391.90172347 111.2557525 -390.69871061 110.89651476 -389.45924282 110.52639103 C-387.0051279 109.79354211 -384.55101714 109.06067924 -382.09691048 108.32780266 C-378.36190697 107.21250748 -374.62681533 106.09750786 -370.89170837 104.9825592 C-346.30376036 97.64217708 -321.72487025 90.27170484 -297.14784241 82.8948555 C-291.46156393 81.18813056 -285.77520834 79.48166259 -280.08886719 77.77514648 C-273.2179483 75.71310284 -266.34704654 73.65100219 -259.47619629 71.58872986 C-244.00315795 66.94462717 -228.52936807 62.30303498 -213.05513573 57.66291237 C-156.05508202 40.57894958 -156.05508202 40.57894958 -99.07572365 23.42614269 C-94.7136151 22.10965066 -90.35065857 20.79600063 -85.98730469 19.48364258 C-75.55099533 16.34267474 -65.12109108 13.18446087 -54.71078491 9.95819092 C-50.03468751 8.51083026 -45.35492452 7.07555654 -40.67468262 5.6416626 C-38.51935701 4.97758693 -36.36585523 4.30755457 -34.21447754 3.63079834 C-9.04716879 -4.28550101 -9.04716879 -4.28550101 0 0 Z " fill="#FFFFFF" transform="translate(506.5625,1.6875)"/>
</svg>
